<?xml version="1.0" encoding="UTF-8" standalone="no"?>
<!-- Created with Inkscape (http://www.inkscape.org/) -->

<svg
   width="112.23997mm"
   height="110.14736mm"
   viewBox="0 0 112.23997 110.14736"
   version="1.1"
   id="svg1"
   sodipodi:docname="Unnamed document 1"
   xmlns:inkscape="http://www.inkscape.org/namespaces/inkscape"
   xmlns:sodipodi="http://sodipodi.sourceforge.net/DTD/sodipodi-0.dtd"
   xmlns="http://www.w3.org/2000/svg"
   xmlns:svg="http://www.w3.org/2000/svg">
  <sodipodi:namedview
     id="namedview1"
     pagecolor="#505050"
     bordercolor="#ffffff"
     borderopacity="1"
     inkscape:showpageshadow="0"
     inkscape:pageopacity="0"
     inkscape:pagecheckerboard="1"
     inkscape:deskcolor="#505050"
     inkscape:document-units="mm"
     inkscape:zoom="1.4485269"
     inkscape:cx="116.67025"
     inkscape:cy="67.30976"
     inkscape:window-width="1920"
     inkscape:window-height="1009"
     inkscape:window-x="1912"
     inkscape:window-y="-8"
     inkscape:window-maximized="1"
     inkscape:current-layer="layer1">
    <inkscape:page
       x="0"
       y="0"
       width="112.23997"
       height="110.14736"
       id="page1"
       margin="16"
       bleed="0"
       inkscape:export-filename="UI.svg"
       inkscape:export-xdpi="96"
       inkscape:export-ydpi="96" />
  </sodipodi:namedview>
  <defs
     id="defs1" />
  <g
     inkscape:label="Layer 1"
     inkscape:groupmode="layer"
     id="layer1"
     transform="translate(15.999954,16.000047)">
    <path
       style="font-size:106.563px;font-family:Lato;-inkscape-font-specification:Lato;fill:#35495e;stroke-width:8.88027"
       d="M 80.997322,76.352348 H 70.660711 V -4.3708801e-5 h 10.336611 z"
       id="text2"
       transform="scale(0.99065014,1.0094381)"
       aria-label="I"
       inkscape:export-filename="UI.svg"
       inkscape:export-xdpi="17.104378"
       inkscape:export-ydpi="17.104378" />
    <path
       style="font-family:Lato;-inkscape-font-specification:Lato;white-space:pre;fill:#41b883"
       d="m 138.31569,358.17545 q 0.534,0 0.954,-0.18 0.42,-0.18 0.708,-0.504 0.294,-0.324 0.444,-0.774 0.156,-0.45 0.156,-0.99 v -5.226 h 1.158 v 5.226 q 0,0.744 -0.24,1.38 -0.234,0.636 -0.678,1.104 -0.438,0.462 -1.074,0.726 -0.636,0.264 -1.428,0.264 -0.792,0 -1.428,-0.264 -0.636,-0.264 -1.08,-0.726 -0.444,-0.468 -0.684,-1.104 -0.234,-0.636 -0.234,-1.38 v -5.226 h 1.158 v 5.22 q 0,0.54 0.15,0.99 0.156,0.45 0.444,0.774 0.294,0.324 0.714,0.51 0.426,0.18 0.96,0.18 z"
       id="text1"
       transform="matrix(8.95888,0,0,8.982456,-1208.4605,-3148.3639)"
       aria-label="U" />
  </g>
</svg>
